<?xml version="1.0" encoding="utf-8"?>
<!-- Generator: Adobe Illustrator 16.0.0, SVG Export Plug-In . SVG Version: 6.00 Build 0)  -->
<!DOCTYPE svg PUBLIC "-//W3C//DTD SVG 1.1//EN" "http://www.w3.org/Graphics/SVG/1.1/DTD/svg11.dtd">
<svg version="1.1" id="Layer_1" xmlns="http://www.w3.org/2000/svg" xmlns:xlink="http://www.w3.org/1999/xlink" x="0px" y="0px"
	 width="172.61px" height="22.041px" viewBox="0 0 172.61 22.041" enable-background="new 0 0 172.61 22.041" xml:space="preserve">
<g>
	<g>
		<path id="SVGID_1_" fill="#FFC21F" d="M5.422,2.066v15.558H8.78v2.065H0v-2.065h3.358V2.066H0V0h8.78v2.065H5.422z M18.645,0
			c1.36,0,2.638,0.257,3.833,0.771c1.195,0.514,2.237,1.216,3.129,2.106c0.892,0.891,1.595,1.933,2.11,3.125
			c0.514,1.193,0.771,2.469,0.771,3.828c0,1.359-0.257,2.639-0.771,3.842c-0.515,1.203-1.218,2.249-2.11,3.139
			c-0.892,0.891-1.934,1.593-3.129,2.106c-1.195,0.515-2.473,0.771-3.833,0.771h-6.287V0H18.645L18.645,0z M18.634,17.624
			c1.064,0,2.073-0.206,3.027-0.617s1.78-0.97,2.477-1.674s1.252-1.527,1.666-2.469c0.413-0.942,0.619-1.953,0.619-3.032
			c0-1.062-0.207-2.067-0.619-3.019c-0.413-0.951-0.968-1.774-1.666-2.469s-1.523-1.249-2.477-1.661
			c-0.954-0.412-1.963-0.617-3.027-0.617h-4.211v15.558H18.634L18.634,17.624z M32.039,0h12.964v2.065H34.103v6.746h7.955v2.065
			h-7.955v6.747h10.899v2.065H32.039V0z M58.792,0l8.643,19.689h-2.229l-2.67-6.086H53.48l-2.67,6.086h-2.229L57.223,0H58.792z
			 M61.627,11.538l-3.605-8.234l-3.633,8.234H61.627L61.627,11.538z"/>
	</g>
</g>
<g>
	<g>
		<path id="SVGID_3_" fill="#FFC21F" d="M91.569,13.148H80.665l-2.919,6.582h-0.578L85.814,0.04h0.579l8.674,19.689h-0.579
			L91.569,13.148z M91.349,12.597L86.117,0.701l-5.232,11.896H91.349z M108.312,9.706c0.569,0.11,1.102,0.316,1.597,0.62
			c0.496,0.303,0.927,0.674,1.295,1.115c0.367,0.44,0.651,0.936,0.854,1.487c0.202,0.551,0.303,1.138,0.303,1.762
			c0,0.698-0.133,1.354-0.399,1.969c-0.266,0.615-0.624,1.147-1.074,1.597c-0.45,0.45-0.982,0.808-1.597,1.074
			c-0.615,0.267-1.271,0.399-1.969,0.399h-8.124V0.04h7.077c0.697,0,1.354,0.134,1.969,0.399c0.615,0.267,1.147,0.629,1.597,1.088
			c0.45,0.459,0.808,0.996,1.074,1.61c0.266,0.615,0.399,1.271,0.399,1.969c0,1.028-0.28,1.955-0.84,2.781
			C109.913,8.715,109.192,9.321,108.312,9.706z M99.72,9.623h6.554c0.624,0,1.207-0.119,1.749-0.358
			c0.541-0.239,1.014-0.564,1.418-0.978s0.725-0.89,0.964-1.432c0.238-0.542,0.358-1.125,0.358-1.749s-0.12-1.212-0.358-1.762
			c-0.239-0.551-0.56-1.033-0.964-1.446s-0.876-0.739-1.418-0.978c-0.542-0.239-1.125-0.358-1.749-0.358H99.72V9.623z
			 M107.32,19.206c0.624,0,1.211-0.119,1.762-0.358c0.551-0.238,1.028-0.564,1.432-0.978c0.403-0.413,0.725-0.89,0.963-1.432
			c0.238-0.542,0.358-1.125,0.358-1.749c0-0.624-0.12-1.211-0.358-1.762s-0.56-1.033-0.963-1.446
			c-0.404-0.413-0.881-0.739-1.432-0.978c-0.551-0.238-1.139-0.358-1.762-0.358h-7.6v9.06H107.32L107.32,19.206z M126.321,19.729
			c-1.359,0-2.634-0.257-3.828-0.771c-1.193-0.514-2.235-1.216-3.125-2.106c-0.891-0.89-1.593-1.932-2.106-3.126
			c-0.514-1.193-0.771-2.469-0.771-3.827s0.257-2.639,0.771-3.842c0.514-1.202,1.216-2.249,2.106-3.139
			c0.89-0.89,1.932-1.592,3.125-2.106c1.193-0.514,2.469-0.771,3.828-0.771c1.358,0,2.634,0.258,3.828,0.771
			c1.193,0.514,2.235,1.216,3.125,2.106c0.89,0.891,1.592,1.937,2.106,3.139c0.514,1.203,0.771,2.483,0.771,3.842
			s-0.257,2.634-0.771,3.827c-0.514,1.194-1.216,2.235-2.106,3.126c-0.891,0.89-1.932,1.593-3.125,2.106
			C128.955,19.472,127.679,19.729,126.321,19.729z M126.321,0.564c-1.286,0-2.492,0.243-3.621,0.729
			c-1.129,0.487-2.116,1.152-2.96,1.997s-1.51,1.835-1.996,2.974c-0.486,1.139-0.729,2.35-0.729,3.635
			c0,1.285,0.243,2.492,0.729,3.621s1.152,2.116,1.996,2.96c0.845,0.845,1.832,1.51,2.96,1.997c1.129,0.487,2.336,0.729,3.621,0.729
			c1.285,0,2.492-0.243,3.621-0.729c1.129-0.486,2.116-1.152,2.96-1.997c0.845-0.844,1.51-1.831,1.997-2.96
			c0.486-1.129,0.729-2.336,0.729-3.621c0-1.285-0.243-2.496-0.729-3.635c-0.487-1.138-1.152-2.129-1.997-2.974
			c-0.845-0.844-1.831-1.51-2.96-1.997C128.813,0.807,127.605,0.564,126.321,0.564z M146.257,0.04c1.358,0,2.634,0.258,3.828,0.771
			c1.193,0.514,2.235,1.216,3.125,2.106c0.89,0.891,1.592,1.937,2.106,3.139c0.514,1.203,0.771,2.483,0.771,3.842
			s-0.257,2.634-0.771,3.827c-0.514,1.194-1.216,2.235-2.106,3.126c-0.891,0.89-1.932,1.593-3.125,2.106
			c-1.194,0.514-2.469,0.771-3.828,0.771h-5.948h-0.028V0.04h0.028H146.257L146.257,0.04z M146.257,19.206
			c1.285,0,2.497-0.243,3.635-0.729s2.129-1.152,2.974-1.997c0.844-0.844,1.51-1.831,1.997-2.96
			c0.486-1.129,0.729-2.336,0.729-3.621c0-1.285-0.244-2.496-0.729-3.635c-0.487-1.138-1.152-2.129-1.997-2.974
			c-0.845-0.844-1.836-1.51-2.974-1.997s-2.35-0.729-3.635-0.729h-5.452v18.642L146.257,19.206L146.257,19.206z M160.742,0.564v9.06
			h8.674v0.523h-8.674v9.06h11.869v0.523h-12.392V0.04h12.392v0.523H160.742z"/>
	</g>
</g>
<g>
	<g>
		<path id="SVGID_5_" fill="#FFC21F" d="M128.771,19.665c-0.111,0.416-0.728,0.416-1.173,0.416c-1.003,0-1.896,0-2.898,0
			c-0.558,0-0.892,0-1.004-0.416c-0.111-0.416,0.112-0.237,0.446-0.237c0.669,0,1.338,0,2.006,0c0.669,0,1.428,0,1.985,0
			C128.58,19.427,128.913,19.137,128.771,19.665z M128.156,20.675c-0.223,0.891-1.003,1.367-1.895,1.367
			c-1.004,0-1.784-0.476-2.007-1.367c-0.112-0.297,0-0.594,0.111-0.594c0.111,0,0.223,0.238,0.335,0.594
			c0.446,0.772,0.892,1.01,1.672,0.951c0.557-0.06,0.956-0.378,1.226-0.951c0.123-0.341,0.334-0.594,0.334-0.594
			C128.044,20.08,128.226,20.385,128.156,20.675z"/>
	</g>
</g>
<g>
	<g>
		<path id="SVGID_7_" fill="#FFC21F" d="M127.677,19.271h-0.257c0-2.332,1.029-4.801,1.544-6.036
			c0.257-0.274,0.386-0.618,0.386-0.96c0-0.138,0-0.275-0.129-0.275c-0.128-0.068-0.257,0-0.386,0.137c0,0-0.129,0.274-0.386,0.686
			c0,0.068-0.129,0.137-0.386,0.137c-0.386,0-0.644-0.274-0.644-0.686l0,0v-0.069c0-0.137-0.129-0.274-0.257-0.274
			c-0.129,0-0.386,0.137-0.386,0.274c0,0.411-0.257,0.754-0.644,0.754s-0.644-0.343-0.644-0.754c0-0.137-0.128-0.274-0.386-0.274
			c-0.129,0-0.257,0.137-0.257,0.274c0,0.411-0.257,0.754-0.644,0.754c-0.128,0-0.257-0.068-0.386-0.137
			c-0.257-0.412-0.386-0.686-0.386-0.754c-0.128-0.069-0.257-0.137-0.386-0.137c-0.129,0.068-0.129,0.137-0.129,0.274
			c0,0.412,0.129,0.755,0.386,0.96c0.515,1.235,1.544,3.772,1.544,6.104h-0.257 M125.104,13.03c0.257,0.274,0.644,0.48,1.029,0.48
			c0.386,0,0.772-0.206,1.029-0.48c0.129,0.343,0.515,0.548,0.901,0.548c0.129,0,0.129,0,0.129,0
			c-0.515,1.372-1.287,3.566-1.416,5.693h-1.287c-0.128-2.195-0.901-4.39-1.415-5.761c0,0,0,0,0.128,0
			C124.588,13.51,124.975,13.304,125.104,13.03z"/>
	</g>
</g>
</svg>
